<svg xmlns="http://www.w3.org/2000/svg" viewBox="0 0 1200 1200"><defs><style>.cls-1{fill:#668bff;}.cls-1,.cls-2,.cls-3,.cls-4,.cls-5,.cls-6,.cls-7{stroke:#000;stroke-linecap:round;stroke-linejoin:round;}.cls-1,.cls-2,.cls-4,.cls-7{stroke-width:5px;}.cls-2{fill:#f2f2f2;}.cls-3,.cls-4,.cls-5,.cls-6{fill:none;}.cls-3{stroke-width:6.02px;}.cls-5{stroke-width:8.32px;}.cls-6{stroke-width:8.48px;}</style></defs><g id="Layer_3" data-name="Layer 3"><g id="Body"><path class="cls-1" d="M1046.16,1198.49s-907.66,2.79-907.66.79c0-27,70.3-144.89,70.3-144.89s242.93-127.69,297.93-132c1-.08,1.91-.12,2.77-.12h2l159.25.42h.74a4.26,4.26,0,0,1,.5,0l1,0H673a70.09,70.09,0,0,1,12.27,2h0c70.14,17,281.86,131.78,281.86,131.78C985.39,1065.7,1046.16,1198.49,1046.16,1198.49Z"/><polyline class="cls-2" points="670.8 889.22 670.38 1050.43 587.4 1078.45 511.14 1047.05 511.54 893.65"/><path d="M509.42,927.38S481.6,946.59,487,970.53s9.66,39.31,25.63,47.75Z"/><path d="M672.94,922.66s31.81,20.57,25.47,46-11.3,41.7-29.66,50.58Z"/><path class="cls-1" d="M671.94,922.65c11.37,12.79,42.56,18,17.14,77.89-10.68,25.17-89.26,44.43-89.26,44.43l-12,33.15s99.58-12.5,129.37-40.5S719.49,921.5,671.94,922.65Z"/><path class="cls-1" d="M511,922.24c-11.44,12.73-35.72,21.6-19,77.79,7.73,26,81.05,45.69,81.05,45.69l14.78,32.73s-94.52-13.33-124.16-41.48S463.45,920.84,511,922.24Z"/><polyline class="cls-3" points="586.79 1199.12 587.1 1078.34 587.1 1078.32 587.1 1077.7"/><circle cx="615.39" cy="1056.97" r="5.11"/><circle cx="560.41" cy="1056.83" r="5.11"/></g><g id="Head"><path class="cls-2" d="M803,642.52s49-9.6,48.81,47.2-83.13,59.37-83.13,59.37A544.27,544.27,0,0,0,803,642.52Z"/><path class="cls-2" d="M370.5,642.52s-48.95-9.6-48.8,47.2,83.13,59.37,83.13,59.37A543.61,543.61,0,0,1,370.5,642.52Z"/><path class="cls-2" d="M811.76,574.45c-.32,129.32-97.79,350.37-225,350S363.29,702.56,363.62,573.24,461.09,353.66,588.28,354,812.08,445.13,811.76,574.45Z"/><circle cx="494.51" cy="644.78" r="15"/><circle cx="697" cy="645.78" r="15"/><path class="cls-2" d="M747.5,711.28c4.09-23.66-19.26-37.87-39.37-22.38"/><path class="cls-2" d="M441.61,711.28c-4.09-23.66,19.26-37.87,39.36-22.38"/><path class="cls-4" d="M587.12,735.22c50.4.13,50.56-60.78.15-60.91"/><path class="cls-5" d="M452.72,549.72q39.48-45.36,78.74.2"/><path class="cls-5" d="M651.81,550.24q39.5-45.36,78.75.2"/><path class="cls-5" d="M358.74,624.48c-1.91,0-2,15.58-3.87,15.58s-1.9-6.68-3.82-6.69-1.92-1.11-3.83-1.12-1.88-17-3.8-17-1.92,1.55-3.84,1.54-1.93,4.25-3.85,4.25-1.94,7.86-3.86,7.85-1.9-7.27-3.81-7.27-1.92-2.27-3.84-2.27-2,13-3.87,13-2,10.29-3.87,10.29-1.88-18.18-3.8-18.18"/><path class="cls-5" d="M400.06,747.42c-1.75.87-3.89-3.42-5.64-2.55s-4.6-4.83-6.35-4-.16,4.06-1.91,4.93-4.25-4.13-6-3.26,11.79,27.95,10,28.83-11.25-18.13-13-17.26,7.24,18.85,5.49,19.73-8.84-13.3-10.59-12.43,5.65,15.68,3.9,16.56-4.23-4.11-6-3.23-2.61-.83-4.36,0-7.79-11.22-9.54-10.34,6.19,16.77,4.44,17.64-9.58-14.77-11.33-13.89-3.74-3.1-5.5-2.22"/><path class="cls-5" d="M406.24,763.43c-1.71.81,7.27,19.86,5.57,20.66s-12.6-22.26-14.31-21.45,9.15,23.81,7.44,24.61-2.51-.87-4.22-.07-8.87-14.37-10.58-13.57,8.28,22,6.57,22.8-9.93-16.61-11.64-15.8,4.78,14.57,3.07,15.37-9.22-15.11-10.94-14.3-.59,3.17-2.3,4-4.84-5.81-6.55-5-1.28,1.72-3,2.53,8.86,23.21,7.15,24-7.68-11.84-9.39-11-6.61-9.56-8.33-8.75,7.8,21,6.09,21.79"/><path class="cls-5" d="M353.52,597c-1.91,0-2-8.05-3.92-8s-2-5.44-3.89-5.42S344.11,609,342.2,609s-2-10.45-3.95-10.42-1.78,10.59-3.69,10.61-2-5.6-3.9-5.58-2-5.43-3.89-5.4-1.9.62-3.81.65-2-4.11-3.88-4.08-1.86,4.49-3.77,4.52-1.95-3.58-3.87-3.55-2-7.62-3.92-7.6S305.86,609,303.94,609"/><path class="cls-5" d="M424,783c-1.09,1.66-19.62-10.38-20.7-8.72s1.19,3.15.11,4.81,2.36,3.91,1.28,5.57,9.81,8.75,8.73,10.41-13.51-6.41-14.6-4.74,17.18,13.53,16.09,15.19-22.25-12.09-23.33-10.43S410,809.51,409,811.18s-12.08-5.48-13.16-3.81,13.81,11.34,12.72,13-22.18-12-23.26-10.38,8.26,7.74,7.18,9.41,8,7.6,7,9.27-2.49.76-3.57,2.43-1.33,1.51-2.42,3.18"/><path class="cls-5" d="M353.81,586c-1.92,0-2.06-12.07-4-12.05s-1.89,1.57-3.8,1.6-2-10.29-3.95-10.27-1.79,9.19-3.7,9.21-1.78,11.42-3.69,11.44-2.24-26.47-4.15-26.45-1.94-2.15-3.85-2.13-1.6,25.18-3.51,25.2-2.25-26.71-4.16-26.68-1.85,4.49-3.77,4.52-1.72,15.58-3.63,15.6-2.13-17.59-4.05-17.57-1.62,24-3.53,24.06"/><path class="cls-5" d="M353.66,543.5c-1.91,0-1.93-1.69-3.84-1.67s-2-6.47-3.9-6.45-1.72,16.16-3.63,16.19-2.17-20.86-4.08-20.84-1.58,26.61-3.49,26.63-1.87,3.47-3.78,3.49-2.27-28.71-4.18-28.68-1.59,26.74-3.5,26.76-2.23-25.71-4.14-25.69-1.71,16.11-3.62,16.13-1.9,1.79-3.81,1.81-1.83,6.67-3.75,6.69-2.08-13.9-4-13.87"/><path class="cls-5" d="M373,531.9c-1.93,0-1.93-34.33-3.85-34.33s-1.93,17.8-3.86,17.8-1.92.29-3.85.29-1.93,16.86-3.85,16.86-1.93-39.88-3.85-39.88-1.93,17-3.86,17-1.92-9.42-3.85-9.42-1.93,45.62-3.85,45.62-1.93-49.77-3.86-49.77-1.92,37.34-3.85,37.34-1.92-16.56-3.85-16.56-1.93-4.83-3.85-4.83-1.93-10.15-3.85-10.15-1.93,41.63-3.86,41.63-1.92.65-3.85.65-1.93-12.09-3.85-12.09-1.93-24.94-3.86-24.94-1.93,22.14-3.86,22.14-1.92-6.18-3.85-6.18S297.9,513,296,513s-1.92-19.88-3.85-19.88-1.93,51.23-3.86,51.23-1.93,1.52-3.86,1.52-1.93-27.72-3.86-27.72"/><path class="cls-5" d="M363.61,574c-1.88-.49-7,19.2-8.88,18.71s-4.73,10.46-6.62,10,12.34-55.22,10.45-55.71-1.95-.24-3.83-.73S340.17,594.5,338.28,594s2.5-17.36.62-17.85,3.06-19.53,1.17-20,1.75-14.46-.14-14.95-5.74,14.34-7.62,13.85,1.34-12.91-.55-13.4-10.56,32.92-12.45,32.43.39-9.22-1.5-9.71-3,3.81-4.88,3.32-7.22,20.06-9.11,19.57,7.49-36.55,5.6-37-10.3,31.89-12.18,31.4-3.62,6.18-5.51,5.69,9.26-43.38,7.38-43.87-8.07,23.3-10,22.81.05-7.93-1.84-8.42,4.46-24.9,2.57-25.39S281,559,279.08,558.5s-7.82,22.34-9.71,21.85,10-46.37,8.15-46.86-.28-6.67-2.17-7.16-13.64,44.72-15.53,44.23"/><path class="cls-5" d="M372.91,507.08c-1.92,0-1.65-23.2-3.58-23.23s-1.7-19.17-3.62-19.19-2.37,37.12-4.29,37.1-1.49-37.14-3.42-37.16-2.19,23-4.12,23-2.2,23.6-4.13,23.58-1.4-44.9-3.32-44.92-2.1,14.92-4,14.9-1.77-13.25-3.69-13.27-2.3,31.74-4.23,31.72-1.79-11.09-3.72-11.11-2,8.73-3.95,8.71-2,9.36-4,9.34-1.7-18.83-3.63-18.85-1.64-24.56-3.56-24.58-2.17,20.38-4.1,20.36-1.71-18.77-3.63-18.79-2.12,16-4,16-2,6.15-3.93,6.13-1.94.9-3.87.88-2.21,23.27-4.14,23.25"/><path class="cls-5" d="M383.6,457.64c-1.91,0-1.72,15-3.64,15.06s-1.91-.27-3.82-.25-2-9.66-3.94-9.63-2-4.05-3.87-4-1.74,14.38-3.65,14.4-1.95-3.19-3.86-3.16-2-5.41-3.89-5.39-2.13-17.18-4-17.16-1.84,5.57-3.76,5.6-2-7.25-3.91-7.23-1.83,6.84-3.74,6.86-1.67,20.16-3.58,20.19-1.92-.31-3.84-.29"/><line class="cls-5" x1="404.5" y1="432.96" x2="356.38" y2="420.44"/><path class="cls-5" d="M426.45,395.72c-1.81-.62-4.49,7.33-6.3,6.72s-4,6-5.85,5.38-5.69,10.87-7.5,10.26,5.09-21.05,3.28-21.66-1.83-.56-3.64-1.17-6.4,13-8.21,12.35-3.54,4.53-5.36,3.91,4.15-18.26,2.34-18.87-8.2,18.31-10,17.7,2.05-12,.23-12.65-.28-5.15-2.09-5.77-.49-4.52-2.31-5.14-7.17,15.25-9,14.64"/><path class="cls-5" d="M451.76,388.08c-1.87-.42-.65-5.83-2.51-6.25s-3.3,5.92-5.16,5.5,1.15-13.76-.72-14.18-3.74,7.92-5.61,7.5-2.55,2.64-4.42,2.22-3.37,6.26-5.24,5.84,2-17.75.19-18.17-1.42-2.42-3.28-2.84-7,22.24-8.85,21.82,2.21-18.48.35-18.9-4,8.89-5.84,8.47,2-17.58.14-18-7.52,24.6-9.39,24.18"/><path class="cls-5" d="M477.07,370.09c-1.71-.84-1.07-2.15-2.78-3s2.67-9.76.95-10.6.52-5.39-1.19-6.24-6.44,8.76-8.15,7.92-.88-2.54-2.6-3.39-2.81,1.39-4.53.55-6,7.88-7.72,7,.4-5.15-1.31-6,6.24-17,4.52-17.87-5.07,6-6.79,5.15,3.84-12.15,2.12-13-4.8,5.41-6.51,4.57-8.57,13.07-10.29,12.22"/><path class="cls-5" d="M517.56,348.49c-1.08-1.65-8.36,3.09-9.44,1.43s-8,2.83-9.05,1.17,7.5-7.25,6.42-8.91-2.58-.68-3.66-2.34,5.72-6.09,4.64-7.75-14.7,7.21-15.78,5.55,6-6.25,4.88-7.91,6.5-6.6,5.42-8.25-7.68,2.64-8.76,1-3.16-.31-4.24-2,7.86-7.49,6.78-9.15-13.38,6.35-14.46,4.68,4.55-5.34,3.47-7"/><path class="cls-5" d="M548.82,345.38c-.58-1.84-18.2,3.63-18.77,1.79s10-5.13,9.45-7,10.23-5.19,9.66-7-9.43.91-10-.93-6.28-.07-6.85-1.91-13.87,2.29-14.44.46,21.45-8.68,20.88-10.52,2.5-2.79,1.92-4.63,3.89-3.22,3.32-5.06-37.17,9.52-37.74,7.68,36-13.18,35.4-15-7,.14-7.56-1.7,1.33-2.43.76-4.27.48-2.17-.09-4,4.24-3.33,3.67-5.17-26.59,6.23-27.16,4.39,1-2.32.41-4.16-9,.78-9.61-1.06S533,275.65,532.39,273.8"/><path class="cls-5" d="M553.83,341.29c-.24-1.89-11.31-.48-11.55-2.38s-.21-1.9-.45-3.8-.08-1.92-.33-3.82,9.26-3.11,9-5,7.27-2.85,7-4.75-12.86-.29-13.11-2.18,27.1-5.4,26.86-7.29,3.17-2.34,2.93-4.24-4.76-1.32-5-3.22-21.74.85-22-1-12.92-.28-13.17-2.18,24.88-5.11,24.64-7-2.84-1.57-3.08-3.47,1-2.06.75-4S572.2,283,572,281.09s-15.74.08-16-1.82-15.17,0-15.41-1.9,20-4.48,19.71-6.39"/><path class="cls-5" d="M587.86,340.51c.28-1.91,12.65-.06,12.94-2s4.7-1.25,5-3.15-18.94-4.76-18.66-6.66,9.09-.59,9.37-2.5,1.8-1.67,2.08-3.57-5.41-2.75-5.13-4.66,2.85-1.52,3.14-3.42-2.77-2.35-2.48-4.26,3.89-1.36,4.17-3.27-8.67-3.23-8.38-5.14-6.63-2.93-6.35-4.83,7-.91,7.23-2.82,9.75-.49,10-2.39-13.84-4-13.56-5.92,26.2,2,26.48.05,1.41-1.74,1.7-3.64"/><path class="cls-5" d="M572.64,350.92c.1-1.92-4.67-2.16-4.57-4.08s-18.2-2.86-18.1-4.78-3-2.08-2.91-4,43.89.33,44-1.59-21.28-3-21.18-4.94-31.65-3.55-31.55-5.48,19.61-.91,19.71-2.83,15.81-1.11,15.91-3-19-2.91-18.89-4.83,8.76-1.47,8.86-3.39-1.63-2-1.53-3.93,28.14-.47,28.24-2.4,4.87-1.67,5-3.59-32.43-3.59-32.33-5.51,4-1.72,4.15-3.64-21.34-3-21.24-4.95,28.06-.48,28.16-2.4-23.64-3.14-23.54-5.07,22.59-.76,22.69-2.68-4.51-2.16-4.41-4.08,14.39-1.19,14.49-3.11,10.18-1.4,10.28-3.32-10.85-2.49-10.75-4.42,13.95-1.21,14-3.14"/><path class="cls-5" d="M616.87,338.94c.74-1.79-3.79-3.68-3-5.47s3.59-.62,4.34-2.41-8.45-5.63-7.71-7.42,17.63,5.23,18.38,3.43,9,1.63,9.72-.16S614.47,314.78,615.22,313s13.15,3.36,13.9,1.57,8.65,1.49,9.4-.31-18.51-9.81-17.76-11.6,31.46,11,32.21,9.19-7.71-5.32-7-7.12-2.52-3.15-1.77-5-7.45-5.21-6.7-7-9.92-6.23-9.17-8,17,4.95,17.71,3.15-13-7.49-12.2-9.29,23.62,7.72,24.37,5.92-14.06-8-13.32-9.76-15.07-8.38-14.32-10.18"/><path class="cls-5" d="M636.62,342.5c.75-1.86,12.53,2.89,13.27,1s.93-1.78,1.68-3.63-3.57-3.6-2.82-5.45,1.73-1.46,2.48-3.31-9-5.79-8.28-7.65,6.41.43,7.16-1.43-5.94-4.55-5.19-6.41,16.25,4.39,17,2.54"/><path class="cls-5" d="M671.74,353.56c.86-1.71-10.81-7.58-10-9.29s23.57,9.73,24.43,8-11.14-7.74-10.28-9.45,9,2.4,9.88.7-1.26-2.77-.41-4.48-17.67-11-16.81-12.74,26.48,11.2,27.34,9.49-12.22-8.28-11.36-10-8.88-6.6-8-8.31,28.2,12.06,29.06,10.35-28.75-16.61-27.89-18.32,20.34,8.11,21.2,6.4-8.53-6.43-7.67-8.14-9.46-6.9-8.6-8.61-1.51-2.89-.65-4.6,1.92-1.17,2.78-2.88,34.62,15.29,35.48,13.58S702.11,294,703,292.3s4.7.22,5.56-1.49,5.17.46,6-1.25"/><path class="cls-5" d="M632.39,352.94c.79-1.8,28.29,10.16,29.07,8.37s-17.33-9.68-16.55-11.48-15-8.69-14.27-10.49-6.44-4.93-5.66-6.73S674.42,352,675.2,350.17s-16.87-9.48-16.09-11.28-9.56-6.3-8.78-8.1,6,.48,6.79-1.32S649,323.8,649.79,322s33.5,12.43,34.29,10.63S634.18,308.79,635,307s18.38,5.86,19.16,4.06,30.75,11.23,31.54,9.44,6.7.77,7.49-1S646.45,297,647.23,295.21s-5.38-4.48-4.6-6.28,26.65,9.45,27.43,7.66S645.6,283.8,646.38,282s36.7,13.82,37.48,12-1.38-2.74-.59-4.54-13.79-8.13-13-9.93-13.83-8.16-13-10,38.73,14.7,39.51,12.9-21.74-11.6-21-13.4-15-8.64-14.18-10.45,46.75,18.2,47.53,16.39-15.17-8.74-14.38-10.54-10.25-6.6-9.46-8.41"/><path class="cls-5" d="M695.58,368c1.32-1.31.37-2.27,1.7-3.58s5.1,2.48,6.42,1.16,1.72-.92,3-2.23,2.29-.34,3.61-1.66-5.74-8.42-4.41-9.73,5.34,2.72,6.66,1.4,1.4-1.25,2.73-2.56-5.22-7.9-3.89-9.22,4.32,1.7,5.65.38"/><path class="cls-5" d="M678,374.56c1-1.63,22.36,12.12,23.4,10.5s-28.93-21-27.88-22.6,3.87.2,4.92-1.43,8.18,3,9.23,1.36,4.16.38,5.2-1.24,12.22,5.58,13.26,4-18-13.95-17-15.57-7.38-7.06-6.33-8.68,33.55,19.36,34.59,17.74-34.06-24.29-33-25.92S714,349.49,715,347.87s-13.68-11.14-12.63-12.76,12.55,5.8,13.6,4.18-2.07-3.64-1-5.26-10.74-9.24-9.69-10.86.22-2.16,1.27-3.79-2.6-4-1.55-5.6,26.21,14.61,27.26,13-4.3-5.08-3.25-6.7-25.1-18.51-24-20.13,35.19,20.41,36.24,18.79-32.7-23.42-31.65-25,13.31,6.29,14.36,4.66-11.06-9.45-10-11.08"/><path class="cls-5" d="M775.38,724.26c1.83.77-6.67,20.79-4.85,21.56s10.64-20,12.47-19.2-7,21.65-5.22,22.43,5.48-7.82,7.3-7,2.8-1.52,4.63-.74-4.17,14.9-2.35,15.68,8.2-14.21,10-13.43,2.55-.91,4.37-.13-3.18,12.57-1.35,13.35,5.34-7.52,7.17-6.74-2.61,11.23-.78,12,11.2-21.29,13-20.51-.63,6.56,1.2,7.34"/><path class="cls-5" d="M764,764.67c1.34,1.35,5.58-2.87,6.93-1.51s-1.85,4.52-.5,5.87-.9,3.59.45,4.94,4.76-2.05,6.11-.7-2.3,5-1,6.34,14-11.23,15.33-9.88-6.42,9.09-5.08,10.44,11.18-8.43,12.53-7.08-7.26,9.91-5.91,11.27,5.34-2.63,6.69-1.27-5.13,7.79-3.78,9.14,1.63,1.08,3,2.44.87,1.82,2.22,3.18"/><path class="cls-5" d="M760.1,779.14c1.62.76,2.3-1.51,4.24-.61,1,.44,1.66,1.85,2.85,2.4s.6,4.45,1.71,5,3.08-.87,4.14-.41,2.35,1,3.33,1.45c1.75.73,3.56,5.45,3.91,5.45"/><path class="cls-5" d="M743.07,807.79c.32.22,7.06-7.68,9-7,1,.37,5.67-9,7-8.56,1.09.39-.92,9.81.35,10.24s-3.26,17.06-2,17.48,10.2-22.24,11.42-21.83,1.93,2,3.13,2.4,1.57,3.14,2.76,3.54,2.51.41,3.69.8,3.54-2.63,4.71-2.25-4,20.07-2.83,20.45,2.51.6,3.65,1,2.16,1.8,3.26,2.16c1.34.45,3.93-3.35,5-3,2.23.73,6.39-13.48,8.17-12.89"/><path class="cls-5" d="M816.61,636.49c2,0,1.5-16.63,3.48-16.68s2.06,2.73,4,2.67,2.09,3.84,4.07,3.79,2.37,13.53,4.35,13.47,1.31-23.43,3.29-23.49,2.22,8.28,4.21,8.23,1.63-12.32,3.61-12.38S846,625.52,848,625.47s2.06,2.41,4,2.36,2.06,2.95,4.05,2.89,2.13,5,4.11,5,2.06,2.65,4,2.59"/><path class="cls-5" d="M817.84,596.63c1.92-.16,3.26,15.64,5.18,15.48s.47-17.17,2.39-17.33,2.46,6.24,4.38,6.08,3.1,13.85,5,13.68,2.2,3.15,4.12,3,1.52-4.87,3.43-5,1.82-1.37,3.74-1.53,1.21-8.52,3.13-8.68,2.5,6.73,4.42,6.56,1.64-3.46,3.56-3.62,1.84-1.11,3.76-1.28"/><path class="cls-5" d="M823.51,594.11c1.88-.17,1-10.36,2.87-10.52s1.67-2.49,3.56-2.66.58-14.92,2.47-15.09,2.53,7.18,4.41,7,3.92,22.87,5.81,22.7,1.31-6.73,3.19-6.9,0-21.58,1.88-21.74,1.91.06,3.8-.11,4.19,25.92,6.07,25.76,1.06-9.53,2.95-9.7,2.24,3.9,4.13,3.73.15-19.89,2-20.06,2.72,9.26,4.61,9.1"/><path class="cls-5" d="M818.05,551.92c1.89,0,1.88,5.83,3.77,5.83s1.92-8.33,3.82-8.32,1.89,5,3.78,5,1.91-1.89,3.81-1.88,1.93-15.36,3.83-15.36S838.91,556,840.81,556s1.92-10,3.82-10,1.89,2.38,3.8,2.39,1.91-6.9,3.82-6.89"/><path class="cls-5" d="M825.46,557.59c2,0,2-1.67,3.92-1.67s2-4.32,3.94-4.31,1.93,11.66,3.89,11.67,2-16.07,4-16.06,2,6.29,3.91,6.29,1.94,8.79,3.9,8.79,1.93,14.35,3.89,14.36,2-13,4-13,2-12,4-12,2,2.05,3.92,2.06,1.91,21.7,3.87,21.7,2-8.14,3.95-8.14,2-14.28,4-14.28,2,.5,3.94.51"/><path class="cls-5" d="M815.39,534.88c1.83-.49.21-6.55,2-7s.65-4.89,2.48-5.38.17-6.69,2-7.18,4,7.66,5.84,7.17-.45-9,1.38-9.47,8.13,23,10,22.56-2.35-16.11-.52-16.6,3.62,6.21,5.45,5.72,2.53,2.11,4.36,1.62-4-22.39-2.21-22.88,1.14-3.09,3-3.58,8.08,22.87,9.91,22.38-2.8-17.79-1-18.28,7.2,19.56,9,19.07"/><path class="cls-5" d="M820.34,561.52c1.87-.52-1.63-13.27.25-13.78s4.26,8.19,6.14,7.68.09-7,2-7.53,6.39,16,8.27,15.44.45-5.68,2.33-6.19.26-6.42,2.13-6.93-1.2-11.75.67-12.26,6.75,17.23,8.62,16.72.53-5.43,2.41-5.94,3.83,6.6,5.71,6.08-3.78-21.13-1.91-21.64,1.61-1.49,3.49-2,3.52,5.46,5.39,5-2.74-17.36-.86-17.88,6,14.71,7.93,14.19-1.85-14.09,0-14.61,4,7.32,5.91,6.81"/><path class="cls-5" d="M804.67,496.32c1.8-.59,5.49,10.53,7.29,9.93s.73-3.81,2.52-4.41,2.07.23,3.86-.37.39-4.85,2.19-5.44,6.12,12.43,7.92,11.83-4.54-19.67-2.75-20.27.56-4.33,2.36-4.92,6.25,12.8,8,12.2,4.83,8.52,6.63,7.93-4.77-20.34-3-20.94,6.8,14.45,8.6,13.85-4.24-18.76-2.44-19.36"/><path class="cls-5" d="M796.16,475.94c1.75-.87-2.22-8.8-.47-9.67s3.74,3.12,5.49,2.25,1.53-1.3,3.28-2.17-2-8.43-.29-9.3,8,11.56,9.72,10.69,8.2,12,10,11.14S818,462.83,819.74,462s2.79,1.22,4.53.34,5.54,6.7,7.29,5.82-6.43-17.2-4.68-18.08,7.85,11.33,9.6,10.45,2.2,0,3.95-.85-3.28-10.93-1.53-11.81"/><path class="cls-5" d="M785.54,455.09c1.39-1.48.48-2.34,1.87-3.82s3.05.08,4.45-1.4-.62-3.37.78-4.85.22-2.57,1.61-4,5.58,2.45,7,1-3.74-6.3-2.35-7.78,9.37,6,10.77,4.53-6.48-8.89-5.09-10.37,5.28,2.16,6.67.67"/><path class="cls-5" d="M769.12,436c1.77-.78-4.65-15.48-2.88-16.25s8,13.47,9.78,12.69,4.38,5.19,6.15,4.42S769.81,403.73,771.59,403s15.31,30.21,17.08,29.44-.34-5.61,1.43-6.39,1.54-1.32,3.31-2.09-9-25.54-7.27-26.32,18.07,36.53,19.84,35.76-12.77-34.09-11-34.87,8.63,14.92,10.4,14.15-7-20.75-5.17-21.52.77-3.09,2.54-3.86,2.08-.08,3.86-.86,2.55,1,4.32.23,2.81,1.58,4.58.8,13.23,25.44,15,24.67-4.71-15.63-2.94-16.4,5,6.63,6.8,5.85-3.23-12.25-1.45-13"/><path class="cls-5" d="M774.17,452.16c1.65-1.08,15.14,19.56,16.79,18.48S773.39,440.17,775,439.09s13.76,17.45,15.41,16.37-6.9-14.15-5.25-15.23,3.42,1.63,5.07.55,6.32,6.06,8,5S785.32,422.42,787,421.34s10.46,12.41,12.11,11.33,15,19.29,16.61,18.21-9.54-18.19-7.89-19.27,2.93.88,4.58-.19,2.87.78,4.51-.29,10.19,12,11.84,10.9,3,1,4.64-.1-3-8.24-1.37-9.31-5-11.33-3.4-12.41S843.31,439.11,845,438s-3.56-9-1.91-10.11-7.16-14.57-5.51-15.65,6,5.58,7.65,4.5-4.77-10.9-3.12-12,14.59,18.71,16.25,17.62-5.32-11.74-3.66-12.82"/><path class="cls-5" d="M760,393.25c1.41-1.28.3-2.5,1.71-3.78s8.68,6.73,10.09,5.46-4.15-7.4-2.74-8.68,11.78,10.14,13.19,8.86.08-2.74,1.49-4,1.22-1.49,2.63-2.76-1.1-4.05.31-5.32,4.22,1.81,5.63.53-5.6-9-4.19-10.29,7.38,5.3,8.79,4,.47-2.32,1.88-3.6"/><path class="cls-5" d="M754.6,408.41c1.09-1.63-8.13-7.82-7-9.45s-10.25-9.23-9.15-10.86-2-3.69-.89-5.32.6-2,1.7-3.59,13.32,6.57,14.41,4.94-3.41-4.66-2.32-6.29,9.7,4.15,10.8,2.52,5.78,1.51,6.87-.13-19.53-15.45-18.43-17.09,23.26,13.23,24.35,11.6S754.88,359,756,357.32s17.88,9.62,19,8-.9-3,.2-4.6-8.56-8.11-7.46-9.74,0-2.35,1.13-4"/><path class="cls-5" d="M709.9,370.67c1.21-1.48.09-2.4,1.3-3.88s10.09,5.77,11.3,4.29,6.17,2.57,7.38,1.09,0-2.49,1.19-4,7.36,3.54,8.57,2.06-16.52-16-15.31-17.44,12.95,8.11,14.16,6.62.67-1.92,1.89-3.4,9.73,5.47,10.94,4-9-9.86-7.83-11.34,8.28,4.29,9.49,2.81-8.44-9.36-7.23-10.85,2.77-.21,4-1.69,10.2,5.85,11.41,4.37S744.8,327.5,746,326s4.17.92,5.38-.56"/><path class="cls-5" d="M465,393.5c-.36-.11,6-22.78,4.1-23.68-1-.47,3.7-13.33,2.36-14-1.08-.52-5.74,6.32-7,5.71s-4.77,4.08-6,3.49-12.88,20.76-14.09,20.18,7.51-21.41,6.31-22-2.86,0-4.05-.58-7.32,9.12-8.5,8.55,2.41-10.9,1.24-11.48,1-8.07-.13-8.64-1.71-2.45-2.87-3-.49-5-1.65-5.53-9.66,13.79-10.81,13.23,0-6-1.13-6.58-10.13,14.67-11.26,14.12,11.17-28.87,10.07-29.41c-1.26-.62-2.48-1.09-3.55-1.62-1.34-.65-8.34,10.65-9.33,10.16-2.22-1.09,6.3-17.23,4.55-18.09"/><path class="cls-5" d="M436.16,390.75c-1.69-.93,6.33-15.58,4.64-16.5s-.85-2.46-2.54-3.39-14.06,21.67-15.75,20.75-4.25,3.75-5.94,2.83-2.4.36-4.09-.56-.34-3.38-2-4.31-3.11,1.66-4.8.73-4.43,4.08-6.12,3.16,14.91-31.26,13.22-32.19S399.22,382,397.54,381.06s8.65-19.83,7-20.75-4.19,3.64-5.88,2.72-3.26,1.93-4.95,1-15.57,24.45-17.26,23.52,17.72-36.41,16-37.33-19.9,32.35-21.59,31.42,7-16.9,5.36-17.82-.58-3-2.27-3.89-16.87,26.81-18.57,25.88,14.92-31.27,13.23-32.2-12.27,18.4-14,17.47,11.91-25.78,10.22-26.71-8.87,12.2-10.57,11.27-14.25,22-16,21.09,18.15-37.18,16.45-38.11"/><path class="cls-5" d="M508.44,353.31c-1.27-1.49-3-.05-4.23-1.54s-18.21,13-19.48,11.46,12.7-13.38,11.43-14.87-16.42,11.42-17.69,9.93,9.23-10.43,8-11.92-.1-2.48-1.37-4-5.09,1.77-6.36.28-11.57,7.3-12.84,5.81,15-15.31,13.7-16.8-4.89,1.59-6.16.1S462,339,460.72,337.46s4.88-6.72,3.61-8.21-13.07,8.57-14.34,7.08,2.28-4.51,1-6-2.57-.38-3.84-1.87,14.95-15.3,13.68-16.79-20.08,14.53-21.35,13,8.5-9.81,7.23-11.3-4,.86-5.29-.63,9.07-10.29,7.8-11.78-10.2,6.12-11.47,4.63-10.13,6.05-11.4,4.56S452.28,285.54,451,284s-12.41,8-13.69,6.51"/><path class="cls-5" d="M394,426.45c-2-.33-6.13,23.73-8.07,23.39s2.27-24.57.32-24.9S375,478.3,373,478s6.7-50.09,4.75-50.43-2.64,3.71-4.59,3.37S363.8,473.29,361.86,473s1.61-20.8-.34-21.14-2.06.31-4,0,3.11-29.45,1.16-29.79-6.83,27.8-8.78,27.46,4.46-37.16,2.51-37.5-2.12.68-4.07.35-9,40.25-10.94,39.91-3.38,7.9-5.32,7.56S331.94,449,330,448.67s3.25-30.26,1.31-30.6-.93-6.16-2.88-6.5-7,28.67-8.93,28.33-5.59,20.67-7.54,20.33-2,.11-4-.22,5.47-43.05,3.53-43.39-8.27,36-10.22,35.7,6.88-51.13,4.93-51.47-6.7,27-8.65,26.7,3.38-31,1.44-31.35S288.3,446.36,286.35,446s4.55-37.75,2.61-38.09-7.62,32.31-9.57,32,4.37-36.73,2.42-37.07"/><path class="cls-6" d="M368.15,632.44c.22-1.2-4.93-3.27-4.74-4.79.16-1.27,8.77-1.7,8.91-3.17.12-1.31-7-3.32-6.91-4.76s5.09-2.33,5.19-3.76-3.24-2.93-3.15-4.35,5.6-2.41,5.67-3.83,2.26-2.63,2.33-4-2.85-2.9-2.78-4.3-6.14-3.05-6.07-4.45-.27-2.77-.2-4.16,6.25-2.45,6.32-3.84,1.87-2.66,1.94-4-4-3-3.88-4.35,2.08-2.64,2.16-4,.8-2.71.89-4.1-6.48-3.16-6.39-4.54,5.35-2.43,5.44-3.81-3.39-3-3.3-4.39,2.12-2.62,2.22-4-.6-2.83-.49-4.21-2-3-1.85-4.34,0-2.81.16-4.19,9.62-1.82,9.77-3.19-7.36-3.58-7.21-4.94,3.49-2.39,3.66-3.76-2.19-3.09-2-4.45,1.57-2.6,1.77-4-3.2-3.35-3-4.7,4.31-2.13,4.55-3.48-2.8-3.4-2.54-4.74,2-2.5,2.31-3.82.7-2.77,1-4.09,1.1-2.67,1.46-4,2.65-2.16,3.07-3.45-1.45-3.54-1-4.8.85-2.87,1.39-4.08-.83-3.95-.19-5.11,3-1.5,3.7-2.75,8.31,1.58,9,.35-2.42-4.57-1.7-5.8-2.42-4.65-1.69-5.87,1.91-2.11,2.64-3.32,4.76-.34,5.5-1.54.63-2.87,1.39-4.06,4.07-.67,4.84-1.85-.69-3.75.08-4.92,5.26.19,6-1-1.49-4.34-.7-5.5,4.1-.51,4.9-1.65-3.93-6.19-3.12-7.33,7.71,2.16,8.54,1-5.07-7.23-4.23-8.35,8.94,3.32,9.79,2.22-5.64-7.95-4.78-9,.89-2.95,1.77-4,8.76,3.63,9.66,2.56,2.28-1.63,3.19-2.68-5.1-8.24-4.17-9.27,6.28,1.93,7.23.91S444,406,445,405s-1.39-5.31-.4-6.28.31-3.81,1.32-4.75,5.48,1.79,6.52.87.56-3.64,1.62-4.53,3.71.13,4.8-.72,2.1-1.81,3.21-2.62-.88-6.32.27-7.08,6.87,5.59,8.05,4.89.91-3.87,2.12-4.51,1.19-4.06,2.44-4.62,2.82-.92,4.11-1.39,1.68-3.41,3-3.9,4.94,5.21,6.26,4.71,3.69,1.88,5,1.38-.64-9.61.68-10.1,4.47,4,5.8,3.52,3.26.85,4.58.37,3,.17,4.32-.3,1.56-3.93,2.89-4.39,1.27-5,2.61-5.48,3.63,2.11,5,1.69,2.18-2.45,3.53-2.85,3.21,1,4.56.6,1.62-4.78,3-5.14,3.46,2.06,4.83,1.73,2.67-.95,4-1.26,2.57-1.54,3.94-1.82,3.24,1.82,4.62,1.56,2.38-2.72,3.77-2.95,2.87,0,4.26-.2,3.33,3.79,4.73,3.62,2.71-.46,4.11-.6,2.17-7.27,3.57-7.38,3.31,7.09,4.72,7,2.7-1,4.11-1.06,2.71-3.63,4.12-3.64,2.86-2.15,4.27-2.13,2.72,4.77,4.13,4.82,2.92-2.49,4.33-2.41,2.62,2.72,4,2.83,3-2.45,4.45-2.31,3.15-2.38,4.55-2.21,3-.2,4.35,0,1.74,7.14,3.14,7.38,2,4.27,3.38,4.53,2.82-.39,4.21-.09,3.46-2.95,4.84-2.63,3.85-3.95,5.19-3.61,2.34,2.24,3.67,2.61,1.59,4.59,2.92,5,3.51-2,4.83-1.61,1.33,4.83,2.64,5.27,4.29-3.95,5.59-3.49,1.27,4.65,2.56,5.13,3.64-1.74,4.93-1.24,2.45,1.38,3.73,1.91.09,6.81,1.35,7.36,6.3-7.39,7.56-6.82-.28,7.22,1,7.82,5.18-4.32,6.42-3.71-.89,7.91.34,8.55,3.61-1,4.83-.37,1.6,2.79,2.81,3.46,6.22-5.34,7.42-4.65-2.43,9.61-1.24,10.32,4.57-2.26,5.74-1.53,1.69,2.48,2.86,3.23,5.72-3.68,6.87-2.91,1.56,2.75,2.7,3.53,3.12.46,4.24,1.26-1.15,6.41,0,7.22,3,.53,4.14,1.36,4.65-1.48,5.74-.64,2.11,1.89,3.19,2.75,2.19,1.78,3.26,2.65-2.84,7.76-1.79,8.65,6.74-3.63,7.78-2.72-.32,4.59.71,5.5.38,3.68,1.39,4.61,2.45,1.39,3.45,2.33,4.61-.8,5.6.16,3.44.52,4.41,1.49,2.83,1.2,3.79,2.18-.69,4.56.25,5.56,4.46-.29,5.38.72-.89,4.6,0,5.62.88,2.93,1.76,4,5.5-.94,6.37.11,2.77,1.45,3.62,2.51-2.29,5.41-1.47,6.48-1,4.22-.21,5.3,5.45-.48,6.22.62-3.51,5.75-2.77,6.86,3.67.87,4.37,2,1.47,2.33,2.11,3.47c.73,1.29,6.52-.16,7.09,1,.68,1.38,2.4,2.56,2.84,3.69s-8.33,6.12-7.79,7.5,8.55-.37,9.07,1,1.67,2.34,2.18,3.7-.93,3.3-.45,4.66,3.19,1.86,3.65,3.22-2.94,3.91-2.5,5.28-2.69,3.7-2.27,5.07,2.67,2,3.06,3.43,7.24.91,7.61,2.29-2.69,3.6-2.35,5,3.93,2,4.25,3.36-7.1,4.41-6.8,5.81,0,2.77.25,4.17,2.74,2.27,3,3.66,5.47,1.91,5.69,3.31-8.17,4.05-8,5.45,2,2.46,2.22,3.87,8.66,1.75,8.82,3.16-9.32,3.79-9.18,5.2-.17,2.74-.05,4.16,7.52,2.17,7.63,3.59-7.28,3.24-7.2,4.65,6.69,2.41,6.75,3.83.61,2.78.66,4.19,1.42,2.78,1.45,4.19.69,2.81.7,4.23,1.76,2.83,1.76,4.24-9.6,2.71-9.62,4.13,4.26,2.84,4.22,4.25,3.43,2.91,3.38,4.32-.07,2.82-.13,4.24-9.24,2.31-9.32,3.72,10.13,3.41,10,4.82-2.42,2.66-2.53,4.06-2.14,2.64-2.26,4,4.41,3.22,4.28,4.63-8.54,2-8.68,3.38,5.93,3.44,5.78,4.84-4.52,2.31-4.69,3.71-4.26,2.26-4.44,3.67"/><path class="cls-6" d="M374.86,664.87c-.08-1.38,8.8-3.27,8.72-4.67s-5.62-2.47-5.69-3.86,3.71-3,3.64-4.35,2.26-2.88,2.2-4.27-8.35-2.4-8.41-3.79,6-3,6-4.42-.41-2.76-.46-4.15.92-2.8.87-4.19-6.54-2.58-6.58-4,6.72-3,6.68-4.35-5.25-2.65-5.28-4-.38-2.78-.4-4.17-.73-2.78-.75-4.17.53-2.8.52-4.19,2.31-2.8,2.31-4.18-1.94-2.79-1.94-4.18-1.26-2.79-1.25-4.18-1.36-2.82-1.34-4.2,1.93-2.78,2-4.16,5.85-2.66,5.88-4-8.65-3-8.61-4.42S381,574.4,381,573s.26-2.76.33-4.14,1-2.71,1.1-4.09-7.92-3.26-7.83-4.64,1.26-2.74,1.35-4.12,5.31-2.39,5.42-3.77-1.49-2.92-1.37-4.29.65-2.73.79-4.1-.87-2.9-.71-4.27-2.17-3.11-2-4.47.53-2.79.73-4.15,6.65-1.79,6.87-3.14-4.14-3.54-3.89-4.89,4.43-2,4.71-3.3-5.43-4.07-5.12-5.4,4.84-1.71,5.19-3-.47-3-.08-4.33-2.92-4-2.48-5.25,9.14.39,9.64-.87-5.24-5.22-4.68-6.44,4.89-.68,5.55-1.85,3.08-1.4,3.78-2.65-3.7-5.27-3-6.51.23-3.08.95-4.31,8.51,1.84,9.24.62-4.45-5.91-3.72-7.12.92-2.72,1.67-3.92,7.15,1.23,7.9,0-4.89-6.43-4.12-7.61,7.83,1.81,8.6.63-5.59-7.08-4.8-8.25,1-2.72,1.83-3.87,5.06.1,5.87-1-1.53-4.56-.71-5.69,1.7-2.28,2.53-3.41,3.16-1.17,4-2.29,3.76-.64,4.62-1.74-1-4.43-.16-5.52,2.65-1.51,3.54-2.58,6.7,2,7.61.95,2.86-1.11,3.78-2.15.8-2.94,1.74-4,1-2.78,2-3.78-.1-4,.89-5,2.34-1.61,3.34-2.57,2.17-1.77,3.2-2.69,3.61,0,4.67-.94-.62-5.14.46-6,2.06-2,3.18-2.84,5.76,3.44,6.91,2.67.11-4.84,1.29-5.55,4.15,1.89,5.37,1.24,2.12-1.46,3.38-2-.39-8.29.9-8.77,3.82,2.3,5.15,1.81,3.43,1.18,4.75.68,3.12.38,4.44-.12,3,.16,4.35-.33,1.12-5,2.44-5.47,3.5,1.47,4.82,1,.89-5.84,2.22-6.31,2-2.92,3.32-3.37,3.93,2.91,5.27,2.47,3.71,2.49,5.05,2.07.34-8.56,1.7-9,3.21.83,4.56.45,3.68,2.83,5,2.48,3.7,3.46,5.07,3.13,2.33-2,3.7-2.31,1-8.81,2.41-9.09,3.84,5,5.23,4.77,3.08,1.69,4.47,1.48,2.73-.25,4.13-.43,2-7,3.37-7.13,3.59,7.9,5,7.78,2.28-6.42,3.69-6.51,2.7-3.18,4.11-3.24,3,6.73,4.43,6.71,2.76-3.77,4.18-3.76,2.92-3.3,4.33-3.26,2.76,2.91,4.17,3,2.92-.92,4.33-.82,2.91-.27,4.32-.13,2.74,1.31,4.14,1.48,1.68,8.34,3.07,8.54,4.35-9.76,5.74-9.52,2,4.88,3.42,5.15,2.92-.28,4.31,0,3.6-3,5-2.69,2.8.56,4.13.89,1.43,5.58,2.75,5.95,2.09,2.65,3.4,3,4.59-5.51,5.9-5.1.46,7.56,1.76,8,3.85-2.71,5.14-2.25.75,5.91,2,6.4,3.09-.51,4.37,0,4.59-3.95,5.85-3.42,2.54,1.21,3.8,1.76,2.47,1.34,3.72,1.91.69,5,1.93,5.63,1.61,2.88,2.84,3.49,4.78-3.33,6-2.7,1.62,2.87,2.82,3.53,2,2.11,3.17,2.79,4.17-1.72,5.36-1,3.56-.48,4.73.23.11,5.14,1.28,5.87,5.07-2.74,6.22-2,1.55,2.78,2.69,3.55,2.46,1.39,3.59,2.17,1.53,2.71,2.64,3.51.18,4.47,1.29,5.28-.54,5.24.55,6.07,7.23-4.87,8.31-4,2,2,3.06,2.85,1.15,3,2.2,3.87-.28,4.6.76,5.48,4-.39,5,.52,4.87-1.25,5.88-.33,2.56,1.41,3.56,2.34.7,3.36,1.69,4.31-.07,4.07.89,5-2,5.87-1.08,6.84,2.54,1.3,3.47,2.29,2.12,1.72,3,2.72,3.08.88,4,1.89.2,3.44,1.08,4.47,3.33.74,4.19,1.78,7.84-2.79,8.68-1.74,1.19,2.72,2,3.79-5,7.28-4.21,8.36,7.57-2,8.33-.93.17,3.37.9,4.47,4.36.67,5,1.78-2.2,4.73-1.56,5.85c.73,1.29,1.38,2.55,1.94,3.68.68,1.38,4.11,1.6,4.54,2.72s-2.62,3.85-2.14,5.23c.43,1.23.75,2.57,1.19,3.95s5.56,1.17,6,2.56-.41,3,0,4.39-4.85,4.07-4.51,5.45,1,2.5,1.37,3.88,2.07,2.31,2.36,3.69,5.87,1.63,6.14,3-.69,3-.44,4.36-1.46,3-1.23,4.44,2.82,2.37,3,3.75-6.19,3.66-6,5,6.63,1.9,6.8,3.3-5.38,3.39-5.23,4.78,3.63,2.37,3.76,3.76-5,3.2-4.88,4.59,1,2.62,1.1,4,1.17,2.64,1.26,4-2,2.83-2,4.22,9.44,2.27,9.5,3.66-9.25,3.13-9.2,4.52,1.87,2.65,1.9,4,1.31,2.7,1.33,4.09,3.43,2.69,3.44,4.09-7.46,2.77-7.46,4.16.19,2.71.18,4.1,7.24,2.8,7.22,4.19-5.38,2.65-5.41,4,3,2.81,3,4.2-4.93,2.56-5,4,4.7,2.91,4.64,4.3-1.65,2.67-1.72,4.05,1.33,2.82,1.25,4.2-3.1,2.55-3.19,3.94.66,2.78.56,4.17,2.54,2.93,2.43,4.31,2.34,3,2.23,4.34.76,2.84.64,4.23-7.78,2.05-7.91,3.43,8.57,3.6,8.43,5-3.53,2.42-3.68,3.8-2.42,2.51-2.57,3.89-4.08,2.29-4.24,3.68,0,2.75-.13,4.13"/><path class="cls-7" d="M657.6,847.09c-12.45,6.5-30,11.43-54.31,13.55-26.2,2.28-46-.12-60.65-5.28-50.16-17.68-39.77-67.63-17.9-72.18,28-5.81,41.55,22.39,69.79,16.52s55.05-29.57,71.39-26.56C678.84,775.52,704.63,822.51,657.6,847.09Z"/><path class="cls-2" d="M657.6,847.09c-12.45,6.5-30,11.43-54.31,13.55-26.2,2.28-46-.12-60.65-5.28C553.32,837.1,576,824.77,596,823.48,614.69,822.28,644.93,833.7,657.6,847.09Z"/></g></g></svg>